# xmcd
#
# Track frame offsets:
#	150
#	12037
#	23000
#	36572
#	47728
#	57419
#	80152
#	90917
#	106248
#	122528
#	135728
#	150445
#	164313
#	177437
#	189972
#	222851
#	234381
#
# Disc length: 3299 seconds
#
# Revision: 1
# Processed by: cddbd v1.5.2PL0 Copyright (c) Steve Scherf et al.
# Submitted via: audiograbber 1.83.01
#
DISCID=d30ce111
DTITLE=The Chuck Norris Experiment - Volume! Voltage!
DYEAR=2006
DGENRE=hard rock
TTITLE0=The Roof Is About To Cave In
TTITLE1=Meteor Mama
TTITLE2=She Moves In Murderous Ways
TTITLE3=Not No, No Way
TTITLE4=Roll
TTITLE5=Bullshit City
TTITLE6=Authority Problem (Killers)
TTITLE7=Saturday Night
TTITLE8=Safe Solution
TTITLE9=Rock 'N' Roll Suicide
TTITLE10=Dinosaur Fire
TTITLE11=Little Demon
TTITLE12=Señorita (Lookout)
TTITLE13=I'm The Law
TTITLE14=Radioshadow
TTITLE15=Speedfever
TTITLE16=158
EXTD=
EXTT0=
EXTT1=
EXTT2=
EXTT3=
EXTT4=
EXTT5=
EXTT6=
EXTT7=
EXTT8=
EXTT9=
EXTT10=
EXTT11=
EXTT12=
EXTT13=
EXTT14=
EXTT15=
EXTT16=
PLAYORDER=
